<svg width="40" height="22" viewBox="0 0 40 22" fill="none" xmlns="http://www.w3.org/2000/svg">
<path d="M19.5455 17.2857H20.8636V16.0286C21.7121 15.9238 22.4318 15.6226 23.0227 15.125C23.6136 14.6274 23.9091 13.9857 23.9091 13.2C23.9091 12.519 23.6061 11.9494 23 11.4911C22.3939 11.0327 21.697 10.6595 20.9091 10.3714V7.46429C21.2121 7.54286 21.4621 7.67381 21.6591 7.85714C21.8561 8.04048 22 8.2631 22.0909 8.525L23.7273 7.93571C23.5152 7.38571 23.1515 6.94702 22.6364 6.61964C22.1212 6.29226 21.5455 6.07619 20.9091 5.97143V4.71429H19.5455V5.93214C18.697 6.01071 17.9773 6.27917 17.3864 6.7375C16.7955 7.19583 16.5 7.80476 16.5 8.56429C16.5 9.27143 16.8106 9.86071 17.4318 10.3321C18.053 10.8036 18.7576 11.1833 19.5455 11.4714V14.575C19.0606 14.444 18.6515 14.2214 18.3182 13.9071C17.9848 13.5929 17.7576 13.2262 17.6364 12.8071L16.0455 13.3964C16.2879 14.1298 16.7121 14.7321 17.3182 15.2036C17.9242 15.675 18.6667 15.9631 19.5455 16.0679V17.2857ZM20.9091 14.5357V11.9429C21.2424 12.0738 21.5379 12.231 21.7955 12.4143C22.053 12.5976 22.1818 12.8726 22.1818 13.2393C22.1818 13.6583 22.0606 13.953 21.8182 14.1232C21.5758 14.2935 21.2727 14.431 20.9091 14.5357ZM19.5455 9.86071C19.2121 9.72976 18.9091 9.57262 18.6364 9.38929C18.3636 9.20595 18.2273 8.93095 18.2273 8.56429C18.2273 8.19762 18.3636 7.92917 18.6364 7.75893C18.9091 7.58869 19.2121 7.47738 19.5455 7.425V9.86071ZM12.7273 22C9.18182 22 6.17424 20.9327 3.70455 18.7982C1.23485 16.6637 0 14.0643 0 11C0 7.93571 1.23485 5.33631 3.70455 3.20179C6.17424 1.06726 9.18182 0 12.7273 0H27.2727C30.8182 0 33.8258 1.06726 36.2955 3.20179C38.7652 5.33631 40 7.93571 40 11C40 14.0643 38.7652 16.6637 36.2955 18.7982C33.8258 20.9327 30.8182 22 27.2727 22H12.7273ZM12.7273 19.6429H27.2727C30.0394 19.6429 32.3977 18.801 34.3477 17.1173C36.2977 15.4335 37.2727 13.3972 37.2727 11.0083C37.2727 8.61944 36.2977 6.58036 34.3477 4.89107C32.3977 3.20179 30.0394 2.35714 27.2727 2.35714H12.7273C9.96061 2.35714 7.60227 3.19901 5.65227 4.88274C3.70227 6.56648 2.72727 8.60279 2.72727 10.9917C2.72727 13.3806 3.70227 15.4196 5.65227 17.1089C7.60227 18.7982 9.96061 19.6429 12.7273 19.6429Z" fill="white"/>
</svg>
