<svg width="22" height="22" viewBox="0 0 22 22" fill="none" xmlns="http://www.w3.org/2000/svg">
<path d="M1.65 22C1.19625 22 0.807813 21.8205 0.484688 21.4615C0.161563 21.1024 0 20.6708 0 20.1667V0L1.8425 2.04722L3.6575 0L5.5 2.04722L7.3425 0L9.1575 2.04722L11 0L12.8425 2.04722L14.6575 0L16.5 2.04722L18.3425 0L20.1575 2.04722L22 0V20.1667C22 20.6708 21.8384 21.1024 21.5153 21.4615C21.1922 21.8205 20.8037 22 20.35 22H1.65ZM1.65 20.1667H10.175V11.6111H1.65V20.1667ZM11.825 20.1667H20.35V16.8056H11.825V20.1667ZM11.825 14.9722H20.35V11.6111H11.825V14.9722ZM1.65 9.77778H20.35V6.11111H1.65V9.77778Z" fill="white"/>
</svg>
