<svg width="16" height="16" viewBox="0 0 16 16" fill="none" xmlns="http://www.w3.org/2000/svg">
<path d="M8.01333 1.94C5.80666 1.94 4.01333 3.73334 4.01333 5.94V7.86667C4.01333 8.27334 3.84 8.89333 3.63333 9.24L2.86666 10.5133C2.39333 11.3 2.72 12.1733 3.58666 12.4667C6.46 13.4267 9.56 13.4267 12.4333 12.4667C13.24 12.2 13.5933 11.2467 13.1533 10.5133L12.3867 9.24C12.1867 8.89333 12.0133 8.27334 12.0133 7.86667V5.94C12.0133 3.74 10.2133 1.94 8.01333 1.94Z" stroke="white" stroke-width="1.5" stroke-miterlimit="10" stroke-linecap="round"/>
<path d="M9.2467 2.13333C8.4405 1.90373 7.58622 1.90373 6.78003 2.13333C6.97336 1.64 7.45336 1.29333 8.01336 1.29333C8.57336 1.29333 9.05336 1.64 9.2467 2.13333Z" stroke="white" stroke-width="1.5" stroke-miterlimit="10" stroke-linecap="round" stroke-linejoin="round"/>
<path d="M10.0133 12.7067C10.0133 13.8067 9.11331 14.7067 8.01331 14.7067C7.46664 14.7067 6.95997 14.48 6.59997 14.12C6.22541 13.7449 6.0145 13.2368 6.01331 12.7067" stroke="white" stroke-width="1.5" stroke-miterlimit="10"/>
</svg>
