<svg width="22" height="22" viewBox="0 0 22 22" fill="none" xmlns="http://www.w3.org/2000/svg">
<path d="M11 10.628C9.4875 10.628 8.25 10.132 7.2875 9.1401C6.325 8.14815 5.84375 6.87279 5.84375 5.31401C5.84375 3.75523 6.325 2.47987 7.2875 1.48792C8.25 0.495974 9.4875 0 11 0C12.5125 0 13.75 0.495974 14.7125 1.48792C15.675 2.47987 16.1562 3.75523 16.1562 5.31401C16.1562 6.87279 15.675 8.14815 14.7125 9.1401C13.75 10.132 12.5125 10.628 11 10.628ZM0 22V18.6699C0 17.7724 0.217708 17.0048 0.653125 16.3671C1.08854 15.7295 1.65 15.2453 2.3375 14.9147C3.87292 14.2061 5.34531 13.6747 6.75469 13.3205C8.16406 12.9662 9.57917 12.7891 11 12.7891C12.4208 12.7891 13.8302 12.9721 15.2281 13.3382C16.626 13.7042 18.0918 14.232 19.6254 14.9215C20.3427 15.2552 20.9178 15.7389 21.3507 16.3728C21.7836 17.0067 22 17.7724 22 18.6699V22H0ZM2.0625 19.8744H19.9375V18.6699C19.9375 18.292 19.8286 17.9318 19.6109 17.5894C19.3932 17.2469 19.124 16.993 18.8031 16.8277C17.3365 16.0955 15.9958 15.5937 14.7812 15.3221C13.5667 15.0505 12.3063 14.9147 11 14.9147C9.69375 14.9147 8.42188 15.0505 7.18438 15.3221C5.94688 15.5937 4.60625 16.0955 3.1625 16.8277C2.84167 16.993 2.57812 17.2469 2.37188 17.5894C2.16563 17.9318 2.0625 18.292 2.0625 18.6699V19.8744ZM11 8.50242C11.8938 8.50242 12.6328 8.20129 13.2172 7.59903C13.8016 6.99678 14.0938 6.23511 14.0938 5.31401C14.0938 4.39291 13.8016 3.63124 13.2172 3.02899C12.6328 2.42673 11.8938 2.1256 11 2.1256C10.1062 2.1256 9.36719 2.42673 8.78281 3.02899C8.19844 3.63124 7.90625 4.39291 7.90625 5.31401C7.90625 6.23511 8.19844 6.99678 8.78281 7.59903C9.36719 8.20129 10.1062 8.50242 11 8.50242Z" fill="white"/>
</svg>
