<svg width="16" height="16" viewBox="0 0 16 16" fill="none" xmlns="http://www.w3.org/2000/svg">
<g clip-path="url(#clip0_14_65)">
<path d="M14.6666 14.6667L13.3333 13.3333M7.66665 14C8.49835 14 9.32191 13.8362 10.0903 13.5179C10.8587 13.1996 11.5569 12.7331 12.145 12.145C12.7331 11.5569 13.1996 10.8587 13.5179 10.0903C13.8362 9.32193 14 8.49837 14 7.66666C14 6.83496 13.8362 6.01139 13.5179 5.243C13.1996 4.4746 12.7331 3.77642 12.145 3.18832C11.5569 2.60021 10.8587 2.1337 10.0903 1.81542C9.32191 1.49714 8.49835 1.33333 7.66665 1.33333C5.98694 1.33333 4.37603 2.00059 3.1883 3.18832C2.00057 4.37605 1.33331 5.98696 1.33331 7.66666C1.33331 9.34637 2.00057 10.9573 3.1883 12.145C4.37603 13.3327 5.98694 14 7.66665 14Z" stroke="white" stroke-width="1.5" stroke-linecap="round" stroke-linejoin="round"/>
</g>
<defs>
<clipPath id="clip0_14_65">
<rect width="16" height="16" fill="white"/>
</clipPath>
</defs>
</svg>
